<svg width="100%" viewBox="0 0 680 680" role="img" xmlns="http://www.w3.org/2000/svg" style="">
  <title style="fill:rgb(0, 0, 0);stroke:none;color:rgb(255, 255, 255);stroke-width:1px;stroke-linecap:butt;stroke-linejoin:miter;opacity:1;font-family:&quot;Anthropic Sans&quot;, -apple-system, BlinkMacSystemFont, &quot;Segoe UI&quot;, sans-serif;font-size:16px;font-weight:400;text-anchor:start;dominant-baseline:auto">Futuristic double-outline R logo with glow</title>
  <desc style="fill:rgb(0, 0, 0);stroke:none;color:rgb(255, 255, 255);stroke-width:1px;stroke-linecap:butt;stroke-linejoin:miter;opacity:1;font-family:&quot;Anthropic Sans&quot;, -apple-system, BlinkMacSystemFont, &quot;Segoe UI&quot;, sans-serif;font-size:16px;font-weight:400;text-anchor:start;dominant-baseline:auto">Bold capital letter R with two parallel white outlines and a soft outer glow on transparent background.</desc>
  <defs>
    <filter id="glowA" x="-80%" y="-80%" width="260%" height="260%">
      <feGaussianBlur stdDeviation="32" result="b"/>
      <feColorMatrix in="b" type="matrix" values="0.8 0 0 0 0.8  0 0.85 0 0 0.9  0 0 1 0 1  0 0 0 0.45 0"/>
    </filter>
    <filter id="glowB" x="-50%" y="-50%" width="200%" height="200%">
      <feGaussianBlur stdDeviation="14" result="b2"/>
      <feColorMatrix in="b2" type="matrix" values="1 0 0 0 1  0 1 0 0 1  0 0 1 0 1  0 0 0 0.7 0"/>
    </filter>
    <filter id="glowC" x="-150%" y="-150%" width="400%" height="400%">
      <feGaussianBlur stdDeviation="70"/>
      <feColorMatrix type="matrix" values="0.6 0 0 0 0.5  0 0.7 0 0 0.6  0 0 1 0 1  0 0 0 0.15 0"/>
    </filter>
  </defs>

  <!--
    R letterform — bold, geometric, futuristic.
    Vertical stem: x=220 to x=278, y=140 to y=540
    Bowl: curves from x=278 up to x=460, arc top y=140–310, comes back down to y=310 at x=278
    Leg: diagonal from ~(390,310) down-right to (480,540), width ~50px
    
    OUTER path of R (the outer edge of the thick letter body):
  -->

  <!-- Wide ambient glow -->
  <path filter="url(#glowC)" d="M220 540 L220 140 L350 140&#10;       C430 140 470 185 470 255&#10;       C470 305 448 340 412 358&#10;       L480 540 L420 540 L358 370 L278 370 L278 540 Z&#10;       M278 190 L278 322 L340 322&#10;       C395 322 418 300 418 255&#10;       C418 208 395 190 340 190 Z" fill="white" style="fill:rgb(255, 255, 255);stroke:none;color:rgb(255, 255, 255);stroke-width:1px;stroke-linecap:butt;stroke-linejoin:miter;opacity:1;font-family:&quot;Anthropic Sans&quot;, -apple-system, BlinkMacSystemFont, &quot;Segoe UI&quot;, sans-serif;font-size:16px;font-weight:400;text-anchor:start;dominant-baseline:auto"/>

  <!-- Mid glow -->
  <path filter="url(#glowA)" d="M220 540 L220 140 L350 140&#10;       C430 140 470 185 470 255&#10;       C470 305 448 340 412 358&#10;       L480 540 L420 540 L358 370 L278 370 L278 540 Z&#10;       M278 190 L278 322 L340 322&#10;       C395 322 418 300 418 255&#10;       C418 208 395 190 340 190 Z" fill="white" style="fill:rgb(255, 255, 255);stroke:none;color:rgb(255, 255, 255);stroke-width:1px;stroke-linecap:butt;stroke-linejoin:miter;opacity:1;font-family:&quot;Anthropic Sans&quot;, -apple-system, BlinkMacSystemFont, &quot;Segoe UI&quot;, sans-serif;font-size:16px;font-weight:400;text-anchor:start;dominant-baseline:auto"/>

  <!-- Sharp close glow -->
  <path filter="url(#glowB)" d="M220 540 L220 140 L350 140&#10;       C430 140 470 185 470 255&#10;       C470 305 448 340 412 358&#10;       L480 540 L420 540 L358 370 L278 370 L278 540 Z&#10;       M278 190 L278 322 L340 322&#10;       C395 322 418 300 418 255&#10;       C418 208 395 190 340 190 Z" fill="white" style="fill:rgb(255, 255, 255);stroke:none;color:rgb(255, 255, 255);stroke-width:1px;stroke-linecap:butt;stroke-linejoin:miter;opacity:1;font-family:&quot;Anthropic Sans&quot;, -apple-system, BlinkMacSystemFont, &quot;Segoe UI&quot;, sans-serif;font-size:16px;font-weight:400;text-anchor:start;dominant-baseline:auto"/>

  <!-- OUTER white contour of the letter (thick ring ~30px) -->
  <path d="M220 540 L220 140 L350 140&#10;       C430 140 470 185 470 255&#10;       C470 305 448 340 412 358&#10;       L480 540 L420 540 L358 370 L278 370 L278 540 Z&#10;       M278 190 L278 322 L340 322&#10;       C395 322 418 300 418 255&#10;       C418 208 395 190 340 190 Z" fill="none" stroke="white" stroke-width="14" stroke-linejoin="miter" stroke-linecap="square" fill-rule="evenodd" style="fill:none;stroke:rgb(255, 255, 255);color:rgb(255, 255, 255);stroke-width:14px;stroke-linecap:square;stroke-linejoin:miter;opacity:1;font-family:&quot;Anthropic Sans&quot;, -apple-system, BlinkMacSystemFont, &quot;Segoe UI&quot;, sans-serif;font-size:16px;font-weight:400;text-anchor:start;dominant-baseline:auto"/>

  <!-- INNER white contour (parallel offset ~24px inset) -->
  <path d="M244 516 L244 164 L348 164&#10;       C420 164 446 202 446 255&#10;       C446 298 428 326 396 342&#10;       L456 516 L448 516 L384 346 L302 346 L302 516 Z&#10;       M302 214 L302 298 L338 298&#10;       C378 298 394 282 394 255&#10;       C394 226 378 214 338 214 Z" fill="none" stroke="white" stroke-width="10" stroke-linejoin="miter" stroke-linecap="square" fill-rule="evenodd" style="fill:none;stroke:rgb(255, 255, 255);color:rgb(255, 255, 255);stroke-width:10px;stroke-linecap:square;stroke-linejoin:miter;opacity:1;font-family:&quot;Anthropic Sans&quot;, -apple-system, BlinkMacSystemFont, &quot;Segoe UI&quot;, sans-serif;font-size:16px;font-weight:400;text-anchor:start;dominant-baseline:auto"/>
</svg>